<svg xmlns="http://www.w3.org/2000/svg" xmlns:xlink="http://www.w3.org/1999/xlink" width="362" height="44.887" viewBox="0 0 362 44.887"><defs><style>.a{fill:rgba(0,0,0,0);}.b,.d{fill:#2cd4ec;}.b{font-size:16px;font-family:Montserrat-Regular, Montserrat;}.c{clip-path:url(#a);}.e{clip-path:url(#b);}.f{clip-path:url(#c);}.g{clip-path:url(#d);}.h{clip-path:url(#e);}.i{clip-path:url(#f);}.j{clip-path:url(#g);}.k{clip-path:url(#h);}.l{clip-path:url(#i);}.m{fill:none;stroke:#2cd4ec;}</style><clipPath id="a"><path class="a" d="M16.9,37.409a14.762,14.762,0,1,1,18.779.288A41.511,41.511,0,0,0,37.53,33.7a20.377,20.377,0,0,0,1.606-7.289,12.689,12.689,0,0,0-17.79-11.572,12.848,12.848,0,0,0-4.159,2.883,12.19,12.19,0,0,0-2.553,3.953,11.737,11.737,0,0,0-.824,4.818,22.186,22.186,0,0,0,1.771,7.289,46.37,46.37,0,0,0,1.977,4.2L16.9,37.45M19.987,10.93a16.6,16.6,0,0,0-.329,30.392l.371.082A.906.906,0,0,0,20.81,40a51.27,51.27,0,0,1-3.542-6.96,20.627,20.627,0,0,1-1.647-6.671A10.131,10.131,0,0,1,18.5,18.96a11.036,11.036,0,0,1,7.907-3.377A10.789,10.789,0,0,1,37.283,26.455,18.174,18.174,0,0,1,35.8,33.044a46.288,46.288,0,0,1-3.459,6.877.906.906,0,0,0,1.194,1.318A16.6,16.6,0,1,0,19.987,10.93" transform="translate(-9.895 -9.481)"/></clipPath><clipPath id="b"><path class="a" d="M20.486,42.952c-.7-1.194-1.441-2.306-2.1-3.336a.906.906,0,0,0-.618-.412,19.082,19.082,0,1,1,5.971-.041.906.906,0,0,0-.618.412l-2.183,3.377a.206.206,0,0,1-.371,0M20.651,0A20.638,20.638,0,0,0,10.561,38.628a20.426,20.426,0,0,0,6.507,2.306L18.921,43.9a2.059,2.059,0,0,0,1.73.988h0a2.059,2.059,0,0,0,1.73-.947l1.936-3.006a20.426,20.426,0,0,0,6.465-2.347A20.632,20.632,0,0,0,20.651,0Z" transform="translate(-0.032 0)"/></clipPath><clipPath id="c"><path class="a" d="M45.4,41.595c.741.247.947.535.947.988s-.329.782-.947.865Zm-2.224-3.336c0-.453.288-.741.947-.865v1.812c-.741-.288-.947-.535-.947-.988m.865-2.718v.206C42.35,35.871,41.2,36.9,41.2,38.383s.947,2.347,2.924,2.883v2.141a5.148,5.148,0,0,1-1.73-.741.988.988,0,0,0-.535-.165.947.947,0,0,0-.453,1.73,6.754,6.754,0,0,0,2.677.947v.741a.7.7,0,0,0,1.4,0v-.741c1.688-.206,2.883-1.153,2.883-2.677s-.865-2.347-2.924-2.924V37.518a5.189,5.189,0,0,1,1.112.453.988.988,0,0,0,.494.124.906.906,0,0,0,.453-1.73,5.683,5.683,0,0,0-1.977-.659V35.5a.7.7,0,0,0-1.4,0" transform="translate(-40.985 -34.8)"/></clipPath><clipPath id="d"><path class="a" d="M117.347,41.459c0,3.294,3.294,3.912,5.395,4.2s2.965.494,2.965,1.936-1.153,1.936-2.759,1.936-2.965-.865-3.006-2.224H117.1c.041,2.553,2.389,4.365,5.765,4.365s5.724-1.73,5.724-4.242c0-3.336-3.5-3.912-5.477-4.283s-2.883-.535-2.883-1.977S121.3,39.4,122.783,39.4s2.718.865,2.759,2.1h2.718c0-2.471-2.265-4.2-5.436-4.2s-5.436,1.647-5.436,4.2" transform="translate(-117.1 -37.3)"/></clipPath><clipPath id="e"><path class="a" d="M166.32,37.8v8.772a2.8,2.8,0,0,1-2.883,3.089,2.834,2.834,0,0,1-2.924-3.089V37.8H157.63v8.772a2.834,2.834,0,0,1-2.924,3.089,2.8,2.8,0,0,1-2.883-3.089V37.8H148.9v8.689a5.458,5.458,0,0,0,10.131,2.841,5.458,5.458,0,0,0,10.131-2.841V37.8Z" transform="translate(-148.9 -37.8)"/></clipPath><clipPath id="f"><path class="a" d="M209.195,39.647a4.571,4.571,0,0,1,4.571,3.5h-9.06a4.53,4.53,0,0,1,4.489-3.5M201.7,44.465a7.076,7.076,0,0,0,7.454,7.207,7.316,7.316,0,0,0,7.165-5.271H213.4a4.406,4.406,0,0,1-4.2,2.924,4.53,4.53,0,0,1-4.571-3.912h11.86a4.572,4.572,0,0,0,.082-.865,7.436,7.436,0,0,0-14.866-.041" transform="translate(-201.7 -37.3)"/></clipPath><clipPath id="g"><path class="a" d="M247.095,39.647a4.571,4.571,0,0,1,4.571,3.5h-9.06a4.53,4.53,0,0,1,4.489-3.5M239.6,44.465a7.076,7.076,0,0,0,7.454,7.207,7.316,7.316,0,0,0,7.165-5.271H251.3a4.406,4.406,0,0,1-4.2,2.924,4.53,4.53,0,0,1-4.571-3.912h11.86a4.572,4.572,0,0,0,.082-.865,7.436,7.436,0,0,0-14.866-.041" transform="translate(-239.6 -37.3)"/></clipPath><clipPath id="h"><path class="a" d="M281.183,44.407a4.454,4.454,0,1,1,8.9,0,4.454,4.454,0,1,1-8.9,0m-2.883,0v12.6h2.883V49.431a6.218,6.218,0,0,0,4.859,2.183,6.8,6.8,0,0,0,7-7.124,7.144,7.144,0,0,0-7.371-7.289,7.031,7.031,0,0,0-7.371,7.207" transform="translate(-278.3 -37.2)"/></clipPath><clipPath id="i"><path class="a" d="M327.483,37.8v7.577a3.418,3.418,0,0,1-3.542,3.706c-2.141,0-3.459-1.483-3.459-3.706V37.8H317.6v7.948a5.32,5.32,0,0,0,5.477,5.642,4.942,4.942,0,0,0,4.406-2.306v2.594a3.344,3.344,0,0,1-3.459,3.665,3.168,3.168,0,0,1-3.377-3.253h-2.677a5.9,5.9,0,0,0,6.177,5.6,6.027,6.027,0,0,0,6.26-6.136V37.8Z" transform="translate(-317.6 -37.8)"/></clipPath></defs><g transform="translate(-532 -94)"><text class="b" transform="translate(722 113)"><tspan x="0" y="0">CONECTANDO VOCÊ</tspan><tspan x="0" y="19">A SEUS CLIENTES</tspan></text><g transform="translate(532 94)"><g class="c" transform="translate(4.062 3.904)"><rect class="d" width="43.446" height="44.043" transform="matrix(0.46, -0.888, 0.888, 0.46, -12.999, 25.19)"/></g><g class="e"><rect class="d" width="58.848" height="57.274" transform="matrix(0.46, -0.888, 0.888, 0.46, -18.306, 35.378)"/></g><g class="f" transform="translate(16.865 14.331)"><rect class="d" width="13.837" height="11.975" transform="matrix(0.46, -0.888, 0.888, 0.46, -4.796, 9.341)"/></g><g class="g" transform="translate(48.21 15.36)"><rect class="d" width="18.12" height="16.929" transform="translate(-5.992 11.16) rotate(-61.8)"/></g><g class="h" transform="translate(61.305 15.566)"><rect class="d" width="22.073" height="24.585" transform="translate(-5.897 11.009) rotate(-61.8)"/></g><g class="i" transform="translate(83.049 15.36)"><rect class="d" width="19.726" height="19.895" transform="translate(-6.015 11.161) rotate(-61.8)"/></g><g class="j" transform="translate(98.656 15.36)"><rect class="d" width="19.726" height="19.895" transform="translate(-6.011 11.16) rotate(-61.8)"/></g><g class="k" transform="translate(114.593 15.319)"><rect class="d" width="24.461" height="22.374" transform="translate(-8.283 15.38) rotate(-61.8)"/></g><g class="l" transform="translate(130.777 15.566)"><rect class="d" width="23.514" height="20.632" transform="translate(-8.27 15.343) rotate(-61.8)"/></g></g><line class="m" y2="33" transform="translate(699.5 100.5)"/></g></svg>